<mxfile host="app.diagrams.net" modified="2023-04-18T10:55:04.617Z" agent="Mozilla/5.0 (Windows NT 10.0; Win64; x64; rv:109.0) Gecko/20100101 Firefox/112.0" etag="A-VoBE35g8dJcRBcMn8s" version="21.1.8" type="device">
  <diagram name="Page-1" id="zapa7KV8a7RlVslvvhAN">
    <mxGraphModel dx="1050" dy="538" grid="1" gridSize="10" guides="1" tooltips="1" connect="1" arrows="1" fold="1" page="1" pageScale="1" pageWidth="827" pageHeight="1169" math="0" shadow="0">
      <root>
        <mxCell id="0" />
        <mxCell id="1" parent="0" />
        <mxCell id="bD8-YBU_n-V9kNYaD_5w-16" style="edgeStyle=orthogonalEdgeStyle;rounded=0;orthogonalLoop=1;jettySize=auto;html=1;entryX=-0.03;entryY=0.5;entryDx=0;entryDy=0;entryPerimeter=0;" parent="1" source="bD8-YBU_n-V9kNYaD_5w-4" target="bD8-YBU_n-V9kNYaD_5w-15" edge="1">
          <mxGeometry relative="1" as="geometry" />
        </mxCell>
        <mxCell id="bD8-YBU_n-V9kNYaD_5w-17" value="Συμπληρώνει πληροφορίες" style="edgeLabel;html=1;align=center;verticalAlign=middle;resizable=0;points=[];" parent="bD8-YBU_n-V9kNYaD_5w-16" vertex="1" connectable="0">
          <mxGeometry x="0.1359" y="1" relative="1" as="geometry">
            <mxPoint as="offset" />
          </mxGeometry>
        </mxCell>
        <mxCell id="bD8-YBU_n-V9kNYaD_5w-28" style="edgeStyle=none;shape=connector;rounded=0;orthogonalLoop=1;jettySize=auto;html=1;entryX=-0.01;entryY=0.45;entryDx=0;entryDy=0;entryPerimeter=0;labelBackgroundColor=default;strokeColor=default;fontFamily=Helvetica;fontSize=11;fontColor=default;endArrow=classic;" parent="1" source="bD8-YBU_n-V9kNYaD_5w-4" target="bD8-YBU_n-V9kNYaD_5w-25" edge="1">
          <mxGeometry relative="1" as="geometry" />
        </mxCell>
        <mxCell id="bD8-YBU_n-V9kNYaD_5w-29" value="&lt;div&gt;Επιλέγει tags και &lt;br&gt;&lt;/div&gt;&lt;div&gt;ολοκλήρωση δημιουργίας&lt;br&gt;&lt;/div&gt;" style="edgeLabel;html=1;align=center;verticalAlign=middle;resizable=0;points=[];fontSize=11;fontFamily=Helvetica;fontColor=default;" parent="bD8-YBU_n-V9kNYaD_5w-28" vertex="1" connectable="0">
          <mxGeometry x="0.282" y="1" relative="1" as="geometry">
            <mxPoint as="offset" />
          </mxGeometry>
        </mxCell>
        <mxCell id="bD8-YBU_n-V9kNYaD_5w-45" style="edgeStyle=none;shape=connector;rounded=0;orthogonalLoop=1;jettySize=auto;html=1;entryX=-0.01;entryY=0.425;entryDx=0;entryDy=0;entryPerimeter=0;labelBackgroundColor=default;strokeColor=default;fontFamily=Helvetica;fontSize=11;fontColor=default;endArrow=classic;" parent="1" source="bD8-YBU_n-V9kNYaD_5w-4" target="bD8-YBU_n-V9kNYaD_5w-42" edge="1">
          <mxGeometry relative="1" as="geometry" />
        </mxCell>
        <mxCell id="bD8-YBU_n-V9kNYaD_5w-46" value="&lt;div&gt;Επιβεβαιώνει&lt;/div&gt;&lt;div&gt;&amp;nbsp;ανάρτηση&lt;/div&gt;" style="edgeLabel;html=1;align=center;verticalAlign=middle;resizable=0;points=[];fontSize=11;fontFamily=Helvetica;fontColor=default;" parent="bD8-YBU_n-V9kNYaD_5w-45" vertex="1" connectable="0">
          <mxGeometry x="0.0767" relative="1" as="geometry">
            <mxPoint as="offset" />
          </mxGeometry>
        </mxCell>
        <mxCell id="bD8-YBU_n-V9kNYaD_5w-4" value="&amp;nbsp;Χειριστής " style="shape=umlActor;verticalLabelPosition=bottom;verticalAlign=top;html=1;outlineConnect=0;" parent="1" vertex="1">
          <mxGeometry x="110" y="80" width="50" height="100" as="geometry" />
        </mxCell>
        <mxCell id="bD8-YBU_n-V9kNYaD_5w-11" style="rounded=0;orthogonalLoop=1;jettySize=auto;html=1;exitX=0.75;exitY=0.1;exitDx=0;exitDy=0;exitPerimeter=0;" parent="1" source="bD8-YBU_n-V9kNYaD_5w-8" edge="1">
          <mxGeometry relative="1" as="geometry">
            <mxPoint x="110" y="200" as="targetPoint" />
          </mxGeometry>
        </mxCell>
        <mxCell id="bD8-YBU_n-V9kNYaD_5w-8" value="Απλός Χρήστης" style="shape=umlActor;verticalLabelPosition=bottom;verticalAlign=top;html=1;outlineConnect=0;" parent="1" vertex="1">
          <mxGeometry x="20" y="330" width="50" height="100" as="geometry" />
        </mxCell>
        <mxCell id="bD8-YBU_n-V9kNYaD_5w-12" style="rounded=0;orthogonalLoop=1;jettySize=auto;html=1;exitX=0.5;exitY=0;exitDx=0;exitDy=0;exitPerimeter=0;" parent="1" source="bD8-YBU_n-V9kNYaD_5w-9" edge="1">
          <mxGeometry relative="1" as="geometry">
            <mxPoint x="140" y="200" as="targetPoint" />
            <mxPoint x="150" y="310" as="sourcePoint" />
          </mxGeometry>
        </mxCell>
        <mxCell id="bD8-YBU_n-V9kNYaD_5w-9" value="Ξεναγός" style="shape=umlActor;verticalLabelPosition=bottom;verticalAlign=top;html=1;outlineConnect=0;" parent="1" vertex="1">
          <mxGeometry x="130" y="330" width="50" height="100" as="geometry" />
        </mxCell>
        <mxCell id="bD8-YBU_n-V9kNYaD_5w-13" style="rounded=0;orthogonalLoop=1;jettySize=auto;html=1;exitX=0.25;exitY=0.1;exitDx=0;exitDy=0;exitPerimeter=0;" parent="1" source="bD8-YBU_n-V9kNYaD_5w-10" edge="1">
          <mxGeometry relative="1" as="geometry">
            <mxPoint x="160" y="200" as="targetPoint" />
          </mxGeometry>
        </mxCell>
        <mxCell id="bD8-YBU_n-V9kNYaD_5w-10" value="&lt;div&gt;Πολιτιστικός&lt;/div&gt;&lt;div&gt;Οργανισμός&lt;/div&gt;" style="shape=umlActor;verticalLabelPosition=bottom;verticalAlign=top;html=1;outlineConnect=0;" parent="1" vertex="1">
          <mxGeometry x="230" y="330" width="50" height="100" as="geometry" />
        </mxCell>
        <mxCell id="bD8-YBU_n-V9kNYaD_5w-20" style="rounded=0;orthogonalLoop=1;jettySize=auto;html=1;exitX=1.01;exitY=0.525;exitDx=0;exitDy=0;exitPerimeter=0;" parent="1" source="bD8-YBU_n-V9kNYaD_5w-15" target="bD8-YBU_n-V9kNYaD_5w-19" edge="1">
          <mxGeometry relative="1" as="geometry">
            <mxPoint x="656" y="130" as="sourcePoint" />
          </mxGeometry>
        </mxCell>
        <mxCell id="bD8-YBU_n-V9kNYaD_5w-15" value="Οθόνη Δημιουργίας Εκδήλωσης" style="shape=umlBoundary;whiteSpace=wrap;html=1;" parent="1" vertex="1">
          <mxGeometry x="414" y="90" width="100" height="80" as="geometry" />
        </mxCell>
        <mxCell id="bD8-YBU_n-V9kNYaD_5w-22" style="rounded=0;orthogonalLoop=1;jettySize=auto;html=1;entryX=0.5;entryY=0;entryDx=0;entryDy=0;" parent="1" source="bD8-YBU_n-V9kNYaD_5w-19" target="bD8-YBU_n-V9kNYaD_5w-21" edge="1">
          <mxGeometry relative="1" as="geometry" />
        </mxCell>
        <mxCell id="bD8-YBU_n-V9kNYaD_5w-19" value="Φόρτωσε" style="ellipse;shape=umlControl;whiteSpace=wrap;html=1;" parent="1" vertex="1">
          <mxGeometry x="752" y="90" width="70" height="80" as="geometry" />
        </mxCell>
        <mxCell id="bD8-YBU_n-V9kNYaD_5w-24" style="edgeStyle=none;shape=connector;rounded=0;orthogonalLoop=1;jettySize=auto;html=1;entryX=1;entryY=0.5;entryDx=0;entryDy=0;entryPerimeter=0;labelBackgroundColor=default;strokeColor=default;fontFamily=Helvetica;fontSize=11;fontColor=default;endArrow=classic;" parent="1" source="bD8-YBU_n-V9kNYaD_5w-21" target="bD8-YBU_n-V9kNYaD_5w-23" edge="1">
          <mxGeometry relative="1" as="geometry" />
        </mxCell>
        <mxCell id="bD8-YBU_n-V9kNYaD_5w-21" value="Tags" style="ellipse;shape=umlEntity;whiteSpace=wrap;html=1;" parent="1" vertex="1">
          <mxGeometry x="747" y="210" width="80" height="80" as="geometry" />
        </mxCell>
        <mxCell id="bD8-YBU_n-V9kNYaD_5w-26" style="edgeStyle=none;shape=connector;rounded=0;orthogonalLoop=1;jettySize=auto;html=1;entryX=1;entryY=0.5;entryDx=0;entryDy=0;entryPerimeter=0;labelBackgroundColor=default;strokeColor=default;fontFamily=Helvetica;fontSize=11;fontColor=default;endArrow=classic;" parent="1" source="bD8-YBU_n-V9kNYaD_5w-23" target="bD8-YBU_n-V9kNYaD_5w-25" edge="1">
          <mxGeometry relative="1" as="geometry" />
        </mxCell>
        <mxCell id="bD8-YBU_n-V9kNYaD_5w-23" value="Εμφάνισε" style="ellipse;shape=umlControl;whiteSpace=wrap;html=1;" parent="1" vertex="1">
          <mxGeometry x="580" y="210" width="70" height="80" as="geometry" />
        </mxCell>
        <mxCell id="bD8-YBU_n-V9kNYaD_5w-31" style="edgeStyle=none;shape=connector;rounded=0;orthogonalLoop=1;jettySize=auto;html=1;entryX=0.171;entryY=0.25;entryDx=0;entryDy=0;entryPerimeter=0;labelBackgroundColor=default;strokeColor=default;fontFamily=Helvetica;fontSize=11;fontColor=default;endArrow=classic;exitX=0.87;exitY=0.875;exitDx=0;exitDy=0;exitPerimeter=0;" parent="1" source="bD8-YBU_n-V9kNYaD_5w-25" target="bD8-YBU_n-V9kNYaD_5w-30" edge="1">
          <mxGeometry relative="1" as="geometry" />
        </mxCell>
        <mxCell id="bD8-YBU_n-V9kNYaD_5w-25" value="Πεδίο επιλογής tags" style="shape=umlBoundary;whiteSpace=wrap;html=1;" parent="1" vertex="1">
          <mxGeometry x="340" y="200" width="100" height="80" as="geometry" />
        </mxCell>
        <mxCell id="bD8-YBU_n-V9kNYaD_5w-33" style="edgeStyle=none;shape=connector;rounded=0;orthogonalLoop=1;jettySize=auto;html=1;labelBackgroundColor=default;strokeColor=default;fontFamily=Helvetica;fontSize=11;fontColor=default;endArrow=classic;" parent="1" source="bD8-YBU_n-V9kNYaD_5w-30" target="bD8-YBU_n-V9kNYaD_5w-39" edge="1">
          <mxGeometry relative="1" as="geometry">
            <mxPoint x="630" y="340" as="targetPoint" />
          </mxGeometry>
        </mxCell>
        <mxCell id="bD8-YBU_n-V9kNYaD_5w-35" value="ναι" style="edgeLabel;html=1;align=center;verticalAlign=middle;resizable=0;points=[];fontSize=11;fontFamily=Helvetica;fontColor=default;" parent="bD8-YBU_n-V9kNYaD_5w-33" vertex="1" connectable="0">
          <mxGeometry x="-0.4286" y="-1" relative="1" as="geometry">
            <mxPoint as="offset" />
          </mxGeometry>
        </mxCell>
        <mxCell id="cBhaB2CVJODFtWnFs59b-3" style="rounded=0;orthogonalLoop=1;jettySize=auto;html=1;strokeColor=#FF0000;strokeWidth=2;" parent="1" source="bD8-YBU_n-V9kNYaD_5w-30" target="cBhaB2CVJODFtWnFs59b-2" edge="1">
          <mxGeometry relative="1" as="geometry" />
        </mxCell>
        <mxCell id="cBhaB2CVJODFtWnFs59b-4" value="Όχι" style="edgeLabel;html=1;align=center;verticalAlign=middle;resizable=0;points=[];fontSize=11;fontFamily=Helvetica;fontColor=default;" parent="cBhaB2CVJODFtWnFs59b-3" vertex="1" connectable="0">
          <mxGeometry x="-0.24" y="-2" relative="1" as="geometry">
            <mxPoint as="offset" />
          </mxGeometry>
        </mxCell>
        <mxCell id="bD8-YBU_n-V9kNYaD_5w-30" value="Όλα τα πεδία συμπληρωμένα;" style="ellipse;shape=umlControl;whiteSpace=wrap;html=1;" parent="1" vertex="1">
          <mxGeometry x="470" y="290" width="90" height="100" as="geometry" />
        </mxCell>
        <mxCell id="bD8-YBU_n-V9kNYaD_5w-37" style="edgeStyle=none;shape=connector;rounded=0;orthogonalLoop=1;jettySize=auto;html=1;entryX=1.043;entryY=0.675;entryDx=0;entryDy=0;entryPerimeter=0;labelBackgroundColor=default;strokeColor=default;fontFamily=Helvetica;fontSize=11;fontColor=default;endArrow=classic;exitX=-0.029;exitY=0.587;exitDx=0;exitDy=0;exitPerimeter=0;" parent="1" source="bD8-YBU_n-V9kNYaD_5w-39" target="bD8-YBU_n-V9kNYaD_5w-41" edge="1">
          <mxGeometry relative="1" as="geometry">
            <mxPoint x="671.9946765304303" y="389.88836959485707" as="sourcePoint" />
            <mxPoint x="464" y="453.03999999999996" as="targetPoint" />
          </mxGeometry>
        </mxCell>
        <mxCell id="bD8-YBU_n-V9kNYaD_5w-40" value="ναι" style="edgeLabel;html=1;align=center;verticalAlign=middle;resizable=0;points=[];fontSize=11;fontFamily=Helvetica;fontColor=default;" parent="bD8-YBU_n-V9kNYaD_5w-37" vertex="1" connectable="0">
          <mxGeometry x="-0.2263" y="1" relative="1" as="geometry">
            <mxPoint as="offset" />
          </mxGeometry>
        </mxCell>
        <mxCell id="cBhaB2CVJODFtWnFs59b-8" style="edgeStyle=none;shape=connector;rounded=0;orthogonalLoop=1;jettySize=auto;html=1;entryX=0.5;entryY=0.15;entryDx=0;entryDy=0;entryPerimeter=0;labelBackgroundColor=default;strokeColor=#FF0000;fontFamily=Helvetica;fontSize=11;fontColor=default;endArrow=classic;strokeWidth=2;" parent="1" source="bD8-YBU_n-V9kNYaD_5w-39" target="cBhaB2CVJODFtWnFs59b-7" edge="1">
          <mxGeometry relative="1" as="geometry" />
        </mxCell>
        <mxCell id="cBhaB2CVJODFtWnFs59b-9" value="&amp;nbsp;Όχι" style="edgeLabel;html=1;align=center;verticalAlign=middle;resizable=0;points=[];fontSize=11;fontFamily=Helvetica;fontColor=default;" parent="cBhaB2CVJODFtWnFs59b-8" vertex="1" connectable="0">
          <mxGeometry x="-0.3422" y="2" relative="1" as="geometry">
            <mxPoint as="offset" />
          </mxGeometry>
        </mxCell>
        <mxCell id="bD8-YBU_n-V9kNYaD_5w-39" value="Tags OK;" style="ellipse;shape=umlControl;whiteSpace=wrap;html=1;fontFamily=Helvetica;fontSize=11;fontColor=default;" parent="1" vertex="1">
          <mxGeometry x="612" y="420" width="70" height="80" as="geometry" />
        </mxCell>
        <mxCell id="bD8-YBU_n-V9kNYaD_5w-43" style="edgeStyle=none;shape=connector;rounded=0;orthogonalLoop=1;jettySize=auto;html=1;labelBackgroundColor=default;strokeColor=default;fontFamily=Helvetica;fontSize=11;fontColor=default;endArrow=classic;" parent="1" source="bD8-YBU_n-V9kNYaD_5w-41" target="bD8-YBU_n-V9kNYaD_5w-42" edge="1">
          <mxGeometry relative="1" as="geometry" />
        </mxCell>
        <mxCell id="bD8-YBU_n-V9kNYaD_5w-41" value="Εμφάνισε" style="ellipse;shape=umlControl;whiteSpace=wrap;html=1;fontFamily=Helvetica;fontSize=11;fontColor=default;" parent="1" vertex="1">
          <mxGeometry x="500" y="413.03999999999996" width="70" height="80" as="geometry" />
        </mxCell>
        <mxCell id="cBhaB2CVJODFtWnFs59b-13" style="edgeStyle=none;shape=connector;rounded=0;orthogonalLoop=1;jettySize=auto;html=1;entryX=1.014;entryY=0.625;entryDx=0;entryDy=0;entryPerimeter=0;labelBackgroundColor=default;strokeColor=default;fontFamily=Helvetica;fontSize=11;fontColor=default;endArrow=classic;" parent="1" source="bD8-YBU_n-V9kNYaD_5w-42" target="cBhaB2CVJODFtWnFs59b-12" edge="1">
          <mxGeometry relative="1" as="geometry" />
        </mxCell>
        <mxCell id="bD8-YBU_n-V9kNYaD_5w-42" value="Οθόνη επιβεβαίωσης ανάρτησης" style="shape=umlBoundary;whiteSpace=wrap;html=1;" parent="1" vertex="1">
          <mxGeometry x="362" y="413.04" width="100" height="80" as="geometry" />
        </mxCell>
        <mxCell id="bD8-YBU_n-V9kNYaD_5w-50" style="edgeStyle=none;shape=connector;rounded=0;orthogonalLoop=1;jettySize=auto;html=1;entryX=0;entryY=0.5;entryDx=0;entryDy=0;labelBackgroundColor=default;strokeColor=default;fontFamily=Helvetica;fontSize=11;fontColor=default;endArrow=classic;" parent="1" source="bD8-YBU_n-V9kNYaD_5w-47" target="bD8-YBU_n-V9kNYaD_5w-49" edge="1">
          <mxGeometry relative="1" as="geometry" />
        </mxCell>
        <mxCell id="bD8-YBU_n-V9kNYaD_5w-47" value="Δημιούργησε" style="ellipse;shape=umlControl;whiteSpace=wrap;html=1;" parent="1" vertex="1">
          <mxGeometry x="54" y="590" width="70" height="80" as="geometry" />
        </mxCell>
        <mxCell id="bD8-YBU_n-V9kNYaD_5w-52" style="edgeStyle=none;shape=connector;rounded=0;orthogonalLoop=1;jettySize=auto;html=1;labelBackgroundColor=default;strokeColor=default;fontFamily=Helvetica;fontSize=11;fontColor=default;endArrow=classic;" parent="1" source="bD8-YBU_n-V9kNYaD_5w-49" target="bD8-YBU_n-V9kNYaD_5w-51" edge="1">
          <mxGeometry relative="1" as="geometry" />
        </mxCell>
        <mxCell id="bD8-YBU_n-V9kNYaD_5w-49" value="Event" style="ellipse;shape=umlEntity;whiteSpace=wrap;html=1;" parent="1" vertex="1">
          <mxGeometry x="180" y="590" width="80" height="80" as="geometry" />
        </mxCell>
        <mxCell id="bD8-YBU_n-V9kNYaD_5w-55" style="edgeStyle=none;shape=connector;rounded=0;orthogonalLoop=1;jettySize=auto;html=1;entryX=0.1;entryY=0.275;entryDx=0;entryDy=0;entryPerimeter=0;labelBackgroundColor=default;strokeColor=default;fontFamily=Helvetica;fontSize=11;fontColor=default;endArrow=classic;" parent="1" source="bD8-YBU_n-V9kNYaD_5w-51" target="bD8-YBU_n-V9kNYaD_5w-54" edge="1">
          <mxGeometry relative="1" as="geometry" />
        </mxCell>
        <mxCell id="bD8-YBU_n-V9kNYaD_5w-51" value="Αποθήκευσε" style="ellipse;shape=umlControl;whiteSpace=wrap;html=1;" parent="1" vertex="1">
          <mxGeometry x="292" y="640" width="70" height="80" as="geometry" />
        </mxCell>
        <mxCell id="bD8-YBU_n-V9kNYaD_5w-53" value="&lt;div&gt;Αρχική&lt;/div&gt;&lt;div&gt;Οθόνη&lt;br&gt;&lt;/div&gt;" style="shape=umlBoundary;whiteSpace=wrap;html=1;" parent="1" vertex="1">
          <mxGeometry x="50" y="735" width="100" height="80" as="geometry" />
        </mxCell>
        <mxCell id="bD8-YBU_n-V9kNYaD_5w-56" style="edgeStyle=none;shape=connector;rounded=0;orthogonalLoop=1;jettySize=auto;html=1;entryX=1.02;entryY=0.488;entryDx=0;entryDy=0;entryPerimeter=0;labelBackgroundColor=default;strokeColor=default;fontFamily=Helvetica;fontSize=11;fontColor=default;endArrow=classic;" parent="1" source="bD8-YBU_n-V9kNYaD_5w-54" target="bD8-YBU_n-V9kNYaD_5w-53" edge="1">
          <mxGeometry relative="1" as="geometry" />
        </mxCell>
        <mxCell id="bD8-YBU_n-V9kNYaD_5w-54" value="Εμφάνισε" style="ellipse;shape=umlControl;whiteSpace=wrap;html=1;" parent="1" vertex="1">
          <mxGeometry x="480" y="735" width="70" height="80" as="geometry" />
        </mxCell>
        <mxCell id="cBhaB2CVJODFtWnFs59b-6" style="edgeStyle=none;shape=connector;rounded=0;orthogonalLoop=1;jettySize=auto;html=1;labelBackgroundColor=default;strokeColor=#FF0000;fontFamily=Helvetica;fontSize=11;fontColor=default;endArrow=classic;entryX=0.57;entryY=-0.037;entryDx=0;entryDy=0;entryPerimeter=0;exitX=0.9;exitY=0.86;exitDx=0;exitDy=0;exitPerimeter=0;strokeWidth=2;" parent="1" source="cBhaB2CVJODFtWnFs59b-2" target="cBhaB2CVJODFtWnFs59b-5" edge="1">
          <mxGeometry relative="1" as="geometry" />
        </mxCell>
        <mxCell id="cBhaB2CVJODFtWnFs59b-2" value="Εμφάνισε μήνυμα μη συμπλήρωσης" style="ellipse;shape=umlControl;whiteSpace=wrap;html=1;" parent="1" vertex="1">
          <mxGeometry x="662" y="290" width="90" height="100" as="geometry" />
        </mxCell>
        <mxCell id="cBhaB2CVJODFtWnFs59b-5" value="Οθόνη Δημιουργίας Εκδήλωσης" style="shape=umlBoundary;whiteSpace=wrap;html=1;" parent="1" vertex="1">
          <mxGeometry x="680" y="660" width="100" height="80" as="geometry" />
        </mxCell>
        <mxCell id="cBhaB2CVJODFtWnFs59b-10" style="edgeStyle=none;shape=connector;rounded=0;orthogonalLoop=1;jettySize=auto;html=1;entryX=0.42;entryY=0.025;entryDx=0;entryDy=0;entryPerimeter=0;labelBackgroundColor=default;strokeColor=#FF0000;fontFamily=Helvetica;fontSize=11;fontColor=default;endArrow=classic;strokeWidth=2;" parent="1" source="cBhaB2CVJODFtWnFs59b-7" target="cBhaB2CVJODFtWnFs59b-5" edge="1">
          <mxGeometry relative="1" as="geometry" />
        </mxCell>
        <mxCell id="cBhaB2CVJODFtWnFs59b-7" value="Εμφάνισε μήνυμα λάθους στα tags" style="ellipse;shape=umlControl;whiteSpace=wrap;html=1;fontFamily=Helvetica;fontSize=11;fontColor=default;" parent="1" vertex="1">
          <mxGeometry x="610" y="530" width="70" height="80" as="geometry" />
        </mxCell>
        <mxCell id="cBhaB2CVJODFtWnFs59b-14" style="edgeStyle=none;shape=connector;rounded=0;orthogonalLoop=1;jettySize=auto;html=1;entryX=0.5;entryY=0.088;entryDx=0;entryDy=0;entryPerimeter=0;labelBackgroundColor=default;strokeColor=default;fontFamily=Helvetica;fontSize=11;fontColor=default;endArrow=classic;" parent="1" source="cBhaB2CVJODFtWnFs59b-12" target="bD8-YBU_n-V9kNYaD_5w-47" edge="1">
          <mxGeometry relative="1" as="geometry" />
        </mxCell>
        <mxCell id="cBhaB2CVJODFtWnFs59b-15" value="Ναι" style="edgeLabel;html=1;align=center;verticalAlign=middle;resizable=0;points=[];fontSize=11;fontFamily=Helvetica;fontColor=default;" parent="cBhaB2CVJODFtWnFs59b-14" vertex="1" connectable="0">
          <mxGeometry x="-0.3176" y="2" relative="1" as="geometry">
            <mxPoint x="1" as="offset" />
          </mxGeometry>
        </mxCell>
        <mxCell id="cBhaB2CVJODFtWnFs59b-16" style="edgeStyle=none;shape=connector;rounded=0;orthogonalLoop=1;jettySize=auto;html=1;labelBackgroundColor=default;strokeColor=#FF0000;fontFamily=Helvetica;fontSize=11;fontColor=default;endArrow=classic;entryX=0.5;entryY=0.088;entryDx=0;entryDy=0;entryPerimeter=0;strokeWidth=2;" parent="1" source="cBhaB2CVJODFtWnFs59b-12" target="bD8-YBU_n-V9kNYaD_5w-54" edge="1">
          <mxGeometry relative="1" as="geometry">
            <mxPoint x="470" y="730" as="targetPoint" />
          </mxGeometry>
        </mxCell>
        <mxCell id="cBhaB2CVJODFtWnFs59b-17" value="Όχι" style="edgeLabel;html=1;align=center;verticalAlign=middle;resizable=0;points=[];fontSize=11;fontFamily=Helvetica;fontColor=default;" parent="cBhaB2CVJODFtWnFs59b-16" vertex="1" connectable="0">
          <mxGeometry x="-0.4141" y="-1" relative="1" as="geometry">
            <mxPoint as="offset" />
          </mxGeometry>
        </mxCell>
        <mxCell id="cBhaB2CVJODFtWnFs59b-12" value="Επιβεβαιωσε ο χειριστής;" style="ellipse;shape=umlControl;whiteSpace=wrap;html=1;fontFamily=Helvetica;fontSize=11;fontColor=default;" parent="1" vertex="1">
          <mxGeometry x="160" y="470" width="70" height="80" as="geometry" />
        </mxCell>
      </root>
    </mxGraphModel>
  </diagram>
</mxfile>
